<?xml version="1.0" standalone="no"?>
<!DOCTYPE svg PUBLIC "-//W3C//DTD SVG 20010904//EN"
 "http://www.w3.org/TR/2001/REC-SVG-20010904/DTD/svg10.dtd">
<svg version="1.0" xmlns="http://www.w3.org/2000/svg"
 width="800.000000pt" height="800.000000pt" viewBox="0 0 800.000000 800.000000"
 preserveAspectRatio="xMidYMid meet">

<g transform="translate(0.000000,800.000000) scale(0.100000,-0.100000)"
fill="#000000" stroke="none">
<path d="M3895 7986 c-172 -42 -316 -193 -360 -377 -22 -95 -22 -1094 0 -1188
59 -248 300 -421 533 -382 190 32 351 187 397 382 22 94 22 1093 0 1188 -64
268 -320 438 -570 377z"/>
<path d="M2088 7501 c-263 -84 -391 -392 -276 -660 10 -25 130 -239 266 -475
228 -398 253 -436 322 -507 134 -135 299 -187 465 -144 161 42 277 155 327
318 28 95 23 244 -13 333 -43 105 -519 920 -574 981 -131 148 -340 210 -517
154z"/>
<path d="M835 6217 c-118 -31 -203 -87 -270 -178 -142 -193 -104 -475 86 -643
59 -52 919 -554 998 -581 25 -10 92 -19 148 -22 85 -5 112 -2 171 16 138 42
251 146 303 279 32 82 32 232 -1 317 -33 86 -78 152 -146 214 -69 63 -901 547
-999 582 -75 26 -219 34 -290 16z"/>
<path d="M384 4460 c-99 -26 -162 -60 -233 -126 -111 -102 -166 -259 -143
-401 33 -198 189 -354 397 -398 103 -22 1057 -22 1160 0 181 38 325 163 377
329 26 81 21 226 -10 306 -47 120 -175 237 -310 282 -66 22 -75 23 -617 25
-513 2 -555 1 -621 -17z"/>
<path d="M1695 3195 c-85 -23 -95 -28 -553 -293 -392 -226 -454 -265 -512
-322 -192 -192 -201 -484 -20 -670 141 -144 373 -179 567 -86 75 36 833 472
899 517 63 43 133 127 170 202 131 273 -6 575 -297 652 -67 18 -188 18 -254 0z"/>
<path d="M2683 2289 c-123 -21 -237 -87 -313 -181 -64 -79 -540 -909 -567
-987 -46 -137 -38 -268 23 -390 38 -75 124 -165 192 -200 185 -94 410 -53 565
104 49 49 100 131 294 465 129 223 250 435 269 472 104 205 78 429 -67 583
-99 105 -256 158 -396 134z"/>
</g>
</svg>
